HIERARCHY
ROOT Hips
{
	OFFSET 0.00000 0.00000 0.00000
	CHANNELS 6 Xposition Yposition Zposition Zrotation Yrotation Xrotation 
	JOINT LHipJoint
	{
		OFFSET 0 0 0
		CHANNELS 3 Zrotation Yrotation Xrotation
		JOINT LeftHip
		{
			OFFSET 1.36337 -1.57426 1.11036
			CHANNELS 3 Zrotation Yrotation Xrotation
			JOINT LeftKnee
			{
				OFFSET 2.38468 -6.55187 0.00000
				CHANNELS 3 Zrotation Yrotation Xrotation
				JOINT LeftAnkle
				{
					OFFSET 2.37166 -6.51609 0.00000
					CHANNELS 3 Zrotation Yrotation Xrotation
					JOINT LeftToe
					{
						OFFSET 0.29078 -0.79891 2.01393
						CHANNELS 3 Zrotation Yrotation Xrotation
						End Site
						{
							OFFSET 0.00000 -0.00000 1.07924
						}
					}
				}
			}
		}
	}
	JOINT RHipJoint
	{
		OFFSET 0 0 0
		CHANNELS 3 Zrotation Yrotation Xrotation
		JOINT RightHip
		{
			OFFSET -1.36349 -1.57426 1.11036
			CHANNELS 3 Zrotation Yrotation Xrotation
			JOINT RightKnee
			{
				OFFSET -2.29562 -6.30717 0.00000
				CHANNELS 3 Zrotation Yrotation Xrotation
				JOINT RightAnkle
				{
					OFFSET -2.40985 -6.62100 0.00000
					CHANNELS 3 Zrotation Yrotation Xrotation
					JOINT RightToe
					{
						OFFSET -0.23197 -0.63733 1.92232
						CHANNELS 3 Zrotation Yrotation Xrotation
						End Site
						{
							OFFSET -0.00000 -0.00000 1.01562
						}
					}
				}
			}
		}
	}
	JOINT lowerback
	{
		OFFSET 0 0 0
		CHANNELS 3 Zrotation Yrotation Xrotation
		JOINT Chest
		{
			OFFSET -0.08565 2.03602 -0.24562
			CHANNELS 3 Zrotation Yrotation Xrotation
			JOINT Chest2
			{
				OFFSET -0.00036 2.05693 0.00216
				CHANNELS 3 Zrotation Yrotation Xrotation
				JOINT lowerneck
				{
					OFFSET 0 0 0
					CHANNELS 3 Zrotation Yrotation Xrotation
					JOINT Neck
					{
						OFFSET -0.03664 1.69515 0.31789
						CHANNELS 3 Zrotation Yrotation Xrotation
						JOINT Head
						{
							OFFSET 0.00932 1.70181 -0.46013
							CHANNELS 3 Zrotation Yrotation Xrotation
							End Site
							{
								OFFSET 0.01243 1.77620 -0.19377
							}
						}
					}
				}
				JOINT LeftCollar
				{
					OFFSET 0 0 0
					CHANNELS 3 Zrotation Yrotation Xrotation
					JOINT LeftShoulder
					{
						OFFSET 3.74344 0.81315 -0.36647
CHANNELS 3 Zrotation Xrotation Yrotation
						JOINT LeftElbow
						{
OFFSET 0 -4.971850 -0.000000
CHANNELS 3 Zrotation Xrotation Yrotation
							JOINT LeftWrist
							{
OFFSET 0 -3.358110 0.000000
CHANNELS 3 Zrotation Xrotation Yrotation
								JOINT lhand
								{
									OFFSET 0 0 0
CHANNELS 3 Zrotation Xrotation Yrotation
									JOINT LFingers
									{
OFFSET 0 -0.622780 0.000000
CHANNELS 3 Zrotation Xrotation Yrotation
										End Site
										{
OFFSET 0 -0.502100 0.000000
										}
									}
								}
								JOINT LThumb
								{
OFFSET 0 0.000000 0.000000
CHANNELS 3 Zrotation Xrotation Yrotation
									End Site
									{
OFFSET 0 -0.509760 0.509760
									}
								}
							}
						}
					}
				}
				JOINT RightCollar
				{
					OFFSET 0 0 0
					CHANNELS 3 Zrotation Yrotation Xrotation
					JOINT RightShoulder
					{
						OFFSET -3.75385 0.50666 -0.06525
CHANNELS 3 Zrotation Xrotation Yrotation
						JOINT RightElbow
						{
OFFSET 0 -4.964930 -0.000000
CHANNELS 3 Zrotation Xrotation Yrotation
							JOINT RightWrist
							{
OFFSET 0 -3.349290 0.000000
CHANNELS 3 Zrotation Xrotation Yrotation
								JOINT rhand
								{
									OFFSET 0 0 0
CHANNELS 3 Zrotation Xrotation Yrotation
									JOINT RFingers
									{
OFFSET 0 -0.638040 0.000000
CHANNELS 3 Zrotation Xrotation Yrotation
										End Site
										{
OFFSET 0 -0.514410 0.000000
										}
									}
								}
								JOINT RThumb
								{
OFFSET 0 0.000000 0.000000
CHANNELS 3 Zrotation Xrotation Yrotation
									End Site
									{
OFFSET 0 -0.522260 0.522260
									}
								}
							}
						}
					}
				}
			}
		}
	}
}
MOTION
Frames: 9
Frame Time: 0.008333333333333333
-19.931700 16.809000 5.790800 168.421000 85.032400 172.829000 0.000000 0.000000 0.000000 -16.522600 -7.643200 -3.995600 1.553900 7.867500 22.312300 1.256600 11.364100 -28.045500 0.011700 -0.699800 -1.923000 0.000000 0.000000 0.000000 12.324100 4.048200 -1.621700 -0.587000 -4.905400 13.638800 -0.280400 -14.920600 -23.908600 -0.075500 -1.773100 4.879000 -3.691500 -0.415400 -8.013100 0.969900 -0.237900 1.142800 3.062300 -0.253100 5.718100 -2.119700 1.120600 -23.696100 -0.622000 3.505300 32.790200 0.865900 1.334200 15.510300 -0.000000 0.000000 0.000000 -4.002100 -6.066700 -19.657500 9.769300 -16.377900 1.409200 21.803200 -8.102800 10.558600 0.000000 0.000000 0.000000 -7.125000 0.000000 0.000000 -3.709100 18.641500 -2.333800 -0.000000 0.000000 0.000000 -0.409100 -2.614300 15.405700 -12.466000 -20.499800 -2.262800 -11.864700 2.663600 30.340600 0.000000 0.000000 0.000000 7.125000 0.000000 -0.000000 22.223900 59.460900 -8.093400
-19.976806 16.802001 5.806802 169.988913 84.774644 174.418985 0.000000 0.000000 0.000000 -16.240798 -7.702562 -4.281390 1.554712 7.869430 22.318290 1.319351 10.724200 -27.968337 0.000500 0.149717 0.411473 0.000000 0.000000 0.000000 12.528653 4.224270 -1.773560 -0.597489 -4.948255 13.760971 -0.273877 -15.201194 -24.195565 -0.089588 -1.929966 5.312231 -3.796893 -0.400977 -7.385957 1.011567 -0.235874 1.072674 3.164308 -0.246087 5.289007 -2.150913 1.106076 -23.518268 -0.591227 3.459744 32.548226 0.868724 1.319582 15.354448 0.000000 0.000000 0.000000 -4.453673 -4.332070 -17.497064 10.866663 -18.083604 1.734282 22.783598 -5.117443 12.308665 0.000000 0.000000 0.000000 -7.125000 0.000000 0.000000 -3.088013 16.677544 -2.075011 0.000000 0.000000 0.000000 -0.278504 -2.612806 15.115103 -12.515073 -20.572663 -2.280121 -12.589627 3.106056 30.208257 0.000000 0.000000 0.000000 7.125000 0.000000 0.000000 21.367223 59.504691 -7.785713
-20.000206 16.811096 5.817598 173.909033 84.459954 178.580087 0.000000 0.000000 0.000000 -15.747025 -8.037516 -4.866136 1.603787 7.986870 22.674209 1.257754 10.850130 -27.632734 0.000701 -0.175367 -0.481884 0.000000 0.000000 0.000000 12.978411 4.514998 -1.664170 -0.549610 -4.749144 13.194327 -0.171484 -15.975147 -24.264866 -0.101522 -2.054318 5.655702 -3.447089 -0.393782 -7.431825 0.987798 -0.254495 1.210679 2.939893 -0.249951 5.458644 -2.206223 1.134742 -23.818063 -0.348986 3.418062 32.411709 0.972178 1.323801 15.349367 0.000000 0.000000 0.000000 -4.357048 -4.456998 -16.247821 11.047217 -18.360565 1.790711 21.725085 -3.940657 11.594904 0.000000 0.000000 0.000000 -7.125000 0.000000 0.000000 -3.797068 17.541786 -2.481606 0.000000 0.000000 0.000000 -0.097181 -3.078552 14.874622 -12.413166 -20.421298 -2.244323 -11.766948 2.752893 30.235403 0.000000 0.000000 0.000000 7.125000 0.000000 0.000000 22.243103 59.342072 -8.037026
-20.011227 16.809699 5.819912 168.945648 84.050462 173.721783 0.000000 0.000000 0.000000 -16.317738 -7.961441 -4.937134 1.573863 7.915512 22.457634 1.242723 10.554112 -27.285475 0.001194 -0.220927 -0.606978 0.000000 0.000000 0.000000 12.324465 4.133045 -2.006458 -0.580247 -4.877591 13.559645 -0.272037 -15.514450 -24.567356 -0.125969 -2.287914 6.302107 -3.957468 -0.355438 -7.235548 0.781628 -0.153792 1.155452 3.023727 -0.208084 5.283582 -1.994393 1.210594 -23.483668 -0.684178 3.564087 32.297849 0.818759 1.371306 15.233703 0.000000 0.000000 0.000000 -4.162155 -4.318380 -15.368205 10.742054 -17.891812 1.695863 21.722435 -3.133918 12.070171 0.000000 0.000000 0.000000 -7.125000 0.000000 0.000000 -3.816221 17.035180 -2.536409 0.000000 0.000000 0.000000 -0.183470 -2.822223 15.036905 -12.458853 -20.489230 -2.260383 -12.317602 2.565408 30.231203 0.000000 0.000000 0.000000 7.125000 0.000000 0.000000 21.668305 59.463605 -7.880375
-20.028306 16.809303 5.833117 173.328728 83.853526 178.185741 0.000000 0.000000 0.000000 -15.734397 -7.970834 -5.350905 1.612112 8.006563 22.734000 1.278841 10.218375 -27.280329 0.000597 0.158923 0.436492 0.000000 0.000000 0.000000 12.923040 4.805714 -1.626107 -0.553197 -4.764560 13.238251 -0.268238 -16.065218 -25.220087 -0.173416 -2.682864 7.396902 -3.638597 -0.408245 -7.248474 0.952472 -0.260380 1.287163 3.010288 -0.259170 5.436626 -1.767151 1.424367 -23.525332 -1.015148 3.904637 32.202090 0.707241 1.493457 15.211477 0.000000 0.000000 0.000000 -4.065439 -4.500697 -13.745604 10.504836 -17.525345 1.623651 22.296302 -2.272453 12.193348 0.000000 0.000000 0.000000 -7.125000 0.000000 0.000000 -3.421615 16.849007 -2.287094 0.000000 0.000000 0.000000 -0.374984 -3.033035 14.863435 -12.442742 -20.465310 -2.254749 -11.778862 2.700147 29.777797 0.000000 0.000000 0.000000 7.125000 0.000000 0.000000 21.880189 58.923882 -7.676680
-20.037783 16.813687 5.838309 171.955930 83.784267 176.982746 0.000000 0.000000 0.000000 -15.872819 -7.971802 -5.595037 1.620450 8.026082 22.793343 1.283268 10.107478 -27.225231 0.001694 0.262309 0.720651 0.000000 0.000000 0.000000 12.717581 4.674259 -1.869016 -0.549056 -4.746937 13.188174 -0.288631 -15.904075 -25.192009 -0.172389 -2.674528 7.373878 -3.688864 -0.300973 -7.267593 0.820035 -0.105030 1.260909 2.918325 -0.180760 5.407200 -1.670426 1.450218 -23.272249 -0.975586 3.870992 32.026101 0.694821 1.503631 15.073466 0.000000 0.000000 0.000000 -3.789217 -4.342678 -13.878685 10.513411 -17.538607 1.626243 23.067013 -2.509637 11.164677 0.000000 0.000000 0.000000 -7.125000 0.000000 0.000000 -2.839962 17.881375 -1.833026 0.000000 0.000000 0.000000 -0.237868 -2.902618 14.524348 -12.552949 -20.628673 -2.293418 -11.724366 2.784175 30.144428 0.000000 0.000000 0.000000 7.125000 0.000000 0.000000 22.216738 59.248774 -7.976896
-20.030997 16.812903 5.838707 170.465861 83.807198 175.425791 0.000000 0.000000 0.000000 -16.093750 -7.844601 -5.504703 1.615099 8.013597 22.755491 1.210981 10.451857 -26.971944 0.011066 -0.680459 -1.869963 0.000000 0.000000 0.000000 12.487852 4.282751 -1.938328 -0.553351 -4.765095 13.239914 -0.311602 -15.498709 -24.889648 -0.179032 -2.725641 7.515770 -3.798072 -0.238058 -7.301649 0.784861 -0.007225 1.309455 2.955098 -0.137415 5.470295 -1.664937 1.527569 -23.029651 -1.071821 4.008869 31.886934 0.675758 1.555014 14.958227 0.000000 0.000000 0.000000 -3.720031 -4.562698 -12.514341 10.232095 -17.101836 1.542469 21.554470 -1.021202 12.509107 0.000000 0.000000 0.000000 -7.125000 0.000000 0.000000 -3.949572 16.583622 -2.664424 0.000000 0.000000 0.000000 -0.277029 -2.920645 14.455511 -12.531467 -20.596800 -2.285824 -11.565462 2.602315 29.755623 0.000000 0.000000 0.000000 7.125000 0.000000 0.000000 22.083311 58.855752 -7.715904
-20.036739 16.817155 5.845820 173.192225 83.784910 178.284464 0.000000 0.000000 0.000000 -15.699388 -8.172893 -5.663804 1.620636 8.026619 22.795068 1.266697 10.310987 -27.265109 0.000942 -0.192177 -0.527907 0.000000 0.000000 0.000000 12.911741 4.883965 -1.731093 -0.527245 -4.653319 12.922269 -0.249195 -16.150555 -25.165063 -0.196846 -2.856773 7.880366 -3.515427 -0.206778 -7.421671 0.852393 0.008968 1.296887 2.868819 -0.122377 5.523012 -1.413393 1.673244 -23.135780 -1.214837 4.181408 31.937170 0.609143 1.635929 15.014751 0.000000 0.000000 0.000000 -3.801216 -4.722234 -13.134396 10.355927 -17.294407 1.579097 22.263757 -2.460624 12.286353 0.000000 0.000000 0.000000 -7.125000 0.000000 0.000000 -3.448212 16.752614 -2.312214 0.000000 0.000000 0.000000 -0.217854 -3.055106 14.526763 -12.547002 -20.619858 -2.291295 -11.571253 2.504996 29.919637 0.000000 0.000000 0.000000 7.125000 0.000000 0.000000 22.201930 59.007851 -7.841852
-20.029179 16.820252 5.851789 177.028925 83.920382 182.033457 0.000000 0.000000 0.000000 -15.258749 -8.293378 -5.600451 1.654471 8.105832 23.036092 1.293926 10.419809 -27.546976 0.000041 0.019034 0.052233 0.000000 0.000000 0.000000 13.411936 4.884174 -1.454195 -0.492268 -4.498702 12.483956 -0.179057 -16.400822 -24.883094 -0.168715 -2.646018 7.294726 -3.025955 -0.091024 -7.353243 0.895868 0.112764 1.237460 2.649691 -0.053281 5.412950 -1.161126 1.814141 -23.040765 -1.281329 4.301465 31.839009 0.559107 1.710767 14.956211 0.000000 0.000000 0.000000 -3.757583 -4.675119 -14.096249 10.505583 -17.526411 1.623836 22.578751 -3.000981 12.366652 0.000000 0.000000 0.000000 -7.125000 0.000000 0.000000 -3.232876 16.635779 -2.175536 0.000000 0.000000 0.000000 -0.013624 -2.888512 14.460353 -12.684283 -20.822875 -2.339893 -11.651990 2.578470 30.373607 0.000000 0.000000 0.000000 7.125000 0.000000 0.000000 22.470253 59.442599 -8.178892
